<?xml version="1.0" standalone="no"?>
<!DOCTYPE svg PUBLIC "-//W3C//DTD SVG 20010904//EN"
 "http://www.w3.org/TR/2001/REC-SVG-20010904/DTD/svg10.dtd">
<svg version="1.0" xmlns="http://www.w3.org/2000/svg"
 width="500.000000pt" height="500.000000pt" viewBox="0 0 500.000000 500.000000"
 preserveAspectRatio="xMidYMid meet">

<g transform="translate(0.000000,500.000000) scale(0.100000,-0.100000)"
fill="#000000" stroke="none">
<path d="M2935 4831 c-114 -54 -203 -150 -247 -266 -20 -51 -23 -77 -22 -175
2 -137 23 -224 84 -353 51 -107 316 -532 331 -532 38 0 334 562 369 700 59
232 46 418 -35 512 -70 82 -218 113 -311 66 -61 -32 -124 -100 -158 -173 -27
-57 -31 -75 -31 -150 1 -104 27 -171 90 -229 94 -86 202 -75 253 25 20 39 33
119 27 162 -12 78 -112 158 -169 136 -30 -12 -17 -31 26 -37 63 -8 100 -51
106 -122 8 -100 -42 -185 -110 -185 -147 0 -239 211 -164 376 72 157 210 221
342 160 94 -44 134 -126 134 -276 0 -107 -22 -227 -60 -332 -32 -88 -149 -316
-243 -476 -48 -82 -63 -100 -73 -90 -25 27 -257 405 -288 473 -65 135 -81 206
-81 350 0 123 2 133 28 188 55 111 163 205 275 238 23 7 42 18 42 26 0 22 -51
15 -115 -16z"/>
<path d="M2355 4559 c-350 -37 -691 -189 -964 -431 -107 -94 -121 -112 -104
-129 8 -8 36 12 110 82 108 102 202 171 330 242 100 55 280 130 293 122 15 -9
12 -92 -4 -123 -8 -15 -40 -52 -71 -82 -31 -30 -71 -82 -88 -115 -28 -53 -32
-69 -31 -140 1 -70 7 -98 53 -225 28 -80 56 -172 60 -206 10 -71 -2 -155 -29
-199 -26 -42 -59 -59 -175 -89 -166 -43 -227 -80 -375 -221 -132 -127 -202
-181 -219 -171 -16 10 -22 79 -11 136 6 30 31 100 56 155 90 195 116 306 85
362 -28 53 -172 58 -255 9 -60 -35 -78 -63 -114 -176 -60 -189 -86 -425 -70
-645 49 -696 531 -1298 1205 -1504 185 -57 256 -66 508 -66 202 0 243 3 335
23 356 78 665 250 907 506 668 706 615 1833 -116 2472 -90 79 -131 101 -131
71 0 -7 22 -30 49 -50 235 -180 449 -485 545 -780 64 -194 81 -305 81 -537 0
-176 -4 -220 -24 -314 -12 -60 -29 -127 -37 -149 -29 -82 -222 -296 -346 -383
-99 -69 -132 -121 -132 -208 1 -43 7 -74 22 -103 l22 -42 -76 -65 c-204 -174
-437 -298 -683 -362 -527 -137 -1097 -5 -1514 351 l-76 65 19 42 c13 29 20 65
20 113 0 91 -27 150 -108 237 -99 106 -101 136 -11 254 57 73 69 101 69 152 0
92 -111 166 -269 179 -60 5 -150 -6 -192 -22 -22 -8 -27 19 -35 195 -10 224
36 506 103 639 33 65 85 97 173 107 48 5 59 3 84 -17 27 -21 28 -25 22 -82 -3
-36 -21 -93 -42 -141 -93 -210 -107 -250 -112 -323 -5 -80 9 -129 39 -138 33
-11 98 34 224 155 179 171 236 205 405 245 137 32 178 65 206 164 30 101 16
186 -70 426 -47 132 -48 197 -6 282 18 36 53 81 86 112 70 65 98 125 92 193
-5 45 -3 50 19 59 56 21 247 52 358 58 103 5 120 8 123 24 3 15 -5 17 -65 16
-37 -1 -104 -5 -148 -10z m-1173 -1995 c38 -11 74 -30 101 -54 35 -32 42 -43
42 -76 -1 -39 -11 -57 -96 -171 -39 -51 -50 -123 -25 -170 8 -17 44 -62 79
-101 36 -38 70 -87 77 -108 17 -50 16 -140 -2 -183 l-14 -34 -48 54 c-124 137
-233 309 -306 486 -45 106 -105 317 -97 338 14 34 193 46 289 19z m2869 -448
c-28 -57 -77 -142 -108 -188 -64 -96 -180 -238 -194 -238 -15 0 -39 65 -39
104 0 77 23 107 156 206 52 39 120 102 159 148 38 45 71 79 74 77 2 -3 -19
-51 -48 -109z"/>
<path d="M2950 3394 c-14 -9 -55 -46 -92 -83 l-68 -65 -42 41 c-49 48 -102 73
-153 73 -140 0 -154 -174 -19 -226 40 -15 53 -16 93 -5 25 6 62 22 81 35 l36
23 29 -24 c66 -54 81 -57 235 -59 147 -1 204 -10 270 -44 154 -79 225 -263
156 -403 -54 -111 -184 -204 -336 -240 -36 -9 -138 -26 -225 -37 -186 -25
-268 -42 -345 -72 -113 -44 -168 -89 -260 -208 -101 -130 -169 -180 -247 -180
-60 0 -83 25 -83 89 0 65 31 120 135 242 145 170 155 203 156 519 0 226 3 249
44 379 7 19 5 22 -11 20 -13 -3 -26 -25 -43 -74 -23 -66 -24 -81 -23 -288 3
-326 -11 -372 -163 -547 -41 -47 -86 -109 -101 -138 -53 -104 -40 -198 31
-228 99 -41 200 14 330 181 83 106 122 140 209 181 96 45 159 60 376 89 102
14 219 34 260 46 149 41 271 133 327 246 24 49 28 70 28 138 0 94 -27 164 -91
234 -86 95 -189 131 -381 131 -145 0 -179 8 -224 56 l-23 24 55 56 c29 31 73
69 97 85 57 40 40 71 -18 33z m-284 -91 c41 -19 101 -80 88 -92 -23 -22 -92
-51 -122 -51 -40 0 -88 23 -102 49 -16 30 -12 76 8 93 34 30 65 30 128 1z"/>
<path d="M2779 1723 c-38 -19 -90 -63 -174 -149 -128 -130 -133 -133 -267
-158 -121 -23 -184 -65 -191 -127 -3 -30 21 -36 32 -7 21 53 69 81 179 102
127 24 146 36 272 165 119 123 170 157 243 167 80 11 177 -54 177 -119 0 -10
7 -31 15 -47 21 -41 66 -51 153 -35 80 16 110 11 134 -19 13 -16 20 -18 29 -9
17 17 -13 61 -47 69 -23 6 -42 5 -164 -11 -25 -3 -51 -2 -58 3 -7 5 -19 33
-27 62 -8 29 -24 64 -37 77 -64 69 -173 83 -269 36z"/>
<path d="M4132 802 c-28 -70 -54 -135 -57 -144 -6 -15 -2 -18 24 -18 21 0 31
5 31 15 0 12 13 15 55 15 42 0 55 -3 55 -15 0 -10 10 -15 30 -15 17 0 30 3 30
6 0 5 -110 277 -114 281 -1 1 -25 -55 -54 -125z m73 -54 c6 -25 5 -28 -19 -28
-29 0 -31 6 -16 46 12 31 25 24 35 -18z"/>
<path d="M1068 780 l-57 -140 30 0 c17 0 32 6 35 15 4 11 21 15 55 15 35 0 51
-4 55 -15 4 -8 18 -15 34 -15 l28 0 -56 140 c-31 77 -58 140 -61 140 -4 0 -32
-63 -63 -140z m75 -7 c2 -10 8 -26 12 -35 6 -15 2 -18 -23 -18 -30 0 -30 0
-19 35 11 38 22 45 30 18z"/>
<path d="M1344 901 c-40 -24 -69 -95 -60 -145 14 -73 89 -125 162 -112 28 6
34 11 34 33 0 23 -3 25 -32 20 -66 -9 -107 23 -108 86 0 55 37 90 91 85 37 -3
39 -2 39 24 0 27 -2 28 -47 28 -30 0 -60 -7 -79 -19z"/>
<path d="M1530 780 l0 -140 25 0 c24 0 25 3 25 55 0 46 3 55 18 55 12 0 27
-19 45 -55 24 -49 30 -55 57 -55 l30 0 -32 56 c-27 49 -29 58 -16 68 43 32 50
95 13 131 -21 22 -33 25 -95 25 l-70 0 0 -140z m130 69 c16 -28 -4 -49 -46
-49 -32 0 -34 2 -34 35 0 33 2 35 35 35 24 0 37 -6 45 -21z"/>
<path d="M1845 910 c-57 -23 -88 -94 -73 -165 20 -90 115 -131 205 -88 39 18
72 77 73 126 0 43 -29 97 -64 118 -32 20 -105 25 -141 9z m120 -65 c25 -24 33
-73 19 -110 -8 -19 -55 -45 -84 -45 -30 0 -80 53 -80 85 0 83 90 126 145 70z"/>
<path d="M2125 896 c-24 -24 -31 -58 -19 -91 4 -9 28 -27 55 -41 51 -25 60
-43 34 -64 -14 -12 -42 -10 -76 4 -12 5 -18 1 -21 -18 -5 -23 -1 -27 32 -37
67 -20 130 13 130 69 0 38 -21 65 -70 87 -31 14 -40 23 -38 39 3 18 10 21 46
20 41 -1 43 1 40 25 -3 23 -8 26 -45 29 -35 3 -48 -2 -68 -22z"/>
<path d="M2335 896 c-24 -24 -31 -58 -19 -91 4 -9 28 -27 55 -41 51 -25 60
-43 34 -64 -14 -12 -42 -10 -76 4 -12 5 -18 1 -21 -18 -5 -23 -1 -27 32 -37
67 -20 130 13 130 69 0 38 -21 65 -70 87 -31 14 -40 23 -38 39 3 18 10 21 46
20 41 -1 43 1 40 25 -3 23 -8 26 -45 29 -35 3 -48 -2 -68 -22z"/>
<path d="M2610 895 c0 -22 4 -25 35 -25 l35 0 0 -115 0 -115 25 0 c24 0 24 0
27 113 l3 112 33 3 c26 3 32 7 32 28 0 24 -1 24 -95 24 -95 0 -95 0 -95 -25z"/>
<path d="M2850 780 l0 -140 25 0 c22 0 24 4 27 58 l3 57 43 3 42 3 0 -60 c0
-58 1 -61 25 -61 l25 0 0 140 0 140 -25 0 c-24 0 -25 -3 -25 -55 l0 -55 -45 0
-45 0 0 55 c0 52 -1 55 -25 55 l-25 0 0 -140z"/>
<path d="M3110 780 l0 -140 70 0 c68 0 70 1 70 24 0 22 -5 25 -42 28 -40 3
-43 5 -43 33 0 27 3 30 38 33 32 3 37 7 37 28 0 21 -4 24 -40 24 -38 0 -40 2
-40 30 0 29 2 30 45 30 41 0 45 2 45 25 0 24 -2 25 -70 25 l-70 0 0 -140z"/>
<path d="M3457 783 l-55 -138 26 -3 c15 -2 29 2 34 12 12 22 103 22 112 1 6
-15 56 -22 56 -7 0 14 -99 255 -109 265 -5 5 -33 -53 -64 -130z m77 -15 c10
-39 7 -48 -19 -48 -29 0 -28 -2 -14 39 13 37 24 40 33 9z"/>
<path d="M3660 895 c0 -22 4 -25 35 -25 l35 0 0 -115 0 -115 25 0 25 0 0 115
0 115 35 0 c31 0 35 3 35 25 0 25 0 25 -95 25 -95 0 -95 0 -95 -25z"/>
<path d="M3900 780 l0 -140 70 0 c68 0 70 1 70 25 0 23 -4 25 -45 25 l-45 0 0
115 0 115 -25 0 -25 0 0 -140z"/>
<path d="M4365 896 c-47 -47 -28 -100 53 -140 62 -32 25 -82 -42 -57 -36 14
-36 15 -36 -14 0 -46 87 -61 134 -24 23 18 27 28 24 62 -3 35 -9 45 -38 64
-68 43 -72 47 -64 66 5 15 15 18 46 15 37 -3 39 -2 36 22 -3 22 -8 25 -45 28
-35 3 -48 -2 -68 -22z"/>
<path d="M1710 426 c-11 -26 -22 -60 -25 -74 -5 -25 -5 -26 4 -4 14 31 77 32
86 1 4 -11 9 -19 11 -16 5 5 -36 118 -47 131 -5 5 -17 -12 -29 -38z m44 -23
c6 -20 4 -23 -18 -23 -29 0 -31 6 -15 47 11 30 19 24 33 -24z"/>
<path d="M1900 440 c0 -11 -5 -20 -11 -20 -8 0 -8 -5 1 -15 7 -8 10 -25 6 -39
-3 -14 -2 -28 4 -31 6 -4 10 18 10 59 0 36 -2 66 -5 66 -3 0 -5 -9 -5 -20z"/>
<path d="M2329 434 c-4 -69 10 -105 40 -103 11 0 9 3 -6 9 -17 7 -23 18 -23
40 0 24 4 30 23 31 14 0 17 2 7 6 -8 3 -21 12 -27 21 -12 14 -13 14 -14 -4z"/>
<path d="M3302 430 c-7 -11 -8 -20 -3 -20 6 0 11 -17 13 -37 2 -25 8 -38 18
-39 9 0 10 1 3 3 -20 7 -16 71 5 76 15 4 15 5 0 6 -9 0 -18 8 -20 16 -2 13 -6
12 -16 -5z"/>
<path d="M1848 419 c-34 -20 -17 -90 22 -88 9 0 6 4 -7 9 -28 11 -31 57 -5 76
20 16 14 18 -10 3z"/>
<path d="M2085 414 c-37 -37 1 -99 47 -76 21 10 21 11 -8 5 -23 -3 -33 -1 -37
11 -5 13 1 16 28 16 28 0 35 4 35 20 0 10 -9 24 -19 30 -25 13 -27 13 -46 -6z
m39 0 c25 -9 19 -34 -7 -34 -30 0 -40 10 -26 27 13 15 12 15 33 7z"/>
<path d="M2218 423 c-14 -4 -18 -14 -16 -51 1 -43 2 -44 5 -10 5 44 26 66 47
48 8 -6 17 -28 19 -48 l4 -37 1 37 c1 22 -4 43 -14 52 -16 17 -17 17 -46 9z"/>
<path d="M2656 417 c-12 -9 -17 -23 -14 -41 4 -38 29 -53 60 -39 21 10 21 11
-11 9 -19 0 -36 4 -38 12 -3 8 6 12 26 12 39 0 53 27 26 46 -23 17 -27 17 -49
1z m42 -9 c19 -19 14 -28 -18 -28 -41 0 -40 33 1 39 3 1 10 -4 17 -11z"/>
<path d="M3399 414 c-11 -14 -10 -18 6 -30 10 -8 25 -14 33 -14 20 0 9 -24
-13 -28 -10 -2 -22 2 -27 10 -8 10 -9 10 -5 -2 6 -22 61 -20 65 3 3 12 -6 21
-27 28 -35 12 -39 23 -13 38 9 6 12 11 6 11 -6 0 -18 -7 -25 -16z"/>
<path d="M1968 375 c9 -25 20 -45 24 -45 9 0 38 67 37 84 0 6 -9 -7 -18 -29
l-18 -40 -16 38 c-22 52 -30 46 -9 -8z"/>
<path d="M2421 397 c-2 -45 15 -68 49 -65 29 2 30 4 29 48 l-2 45 -6 -40 c-5
-31 -11 -41 -28 -43 -17 -2 -24 3 -27 20 -3 13 -7 32 -9 43 -3 14 -5 12 -6 -8z"/>
<path d="M2561 373 c1 -53 6 -49 11 10 2 20 0 37 -4 37 -4 0 -8 -21 -7 -47z"/>
<path d="M2885 382 c0 -31 -4 -38 -22 -40 -24 -3 -33 21 -13 31 6 3 5 4 -2 3
-7 -2 -13 -11 -13 -22 0 -15 7 -19 33 -20 31 -1 32 1 32 37 0 21 -3 40 -7 42
-5 3 -8 -11 -8 -31z"/>
<path d="M2951 409 c-1 -24 20 -79 30 -79 5 0 9 8 9 17 0 9 -3 13 -7 9 -5 -4
-13 9 -20 31 -6 21 -12 31 -12 22z"/>
<path d="M2995 399 c-4 -11 -4 -23 -1 -26 3 -4 6 1 6 11 0 27 17 10 23 -24 4
-16 10 -30 15 -30 11 0 36 80 28 88 -3 3 -9 -9 -12 -27 -9 -44 -21 -47 -28 -6
-8 39 -21 45 -31 14z"/>
<path d="M3165 382 c0 -31 -4 -38 -22 -40 -24 -3 -33 21 -13 31 6 3 5 4 -2 3
-7 -2 -13 -11 -13 -22 0 -15 7 -19 33 -20 31 -1 32 1 32 37 0 21 -3 40 -7 42
-5 3 -8 -11 -8 -31z"/>
<path d="M3243 375 c0 -27 2 -38 4 -22 2 15 2 37 0 50 -2 12 -4 0 -4 -28z"/>
</g>
</svg>
